<?xml version="1.0" encoding="UTF-8"?>
<svg xmlns="http://www.w3.org/2000/svg" xmlns:xlink="http://www.w3.org/1999/xlink" width="28px" height="20px" viewBox="0 0 28 20" version="1.1">
<g id="surface1">
<rect x="0" y="0" width="28" height="20" style="fill:rgb(100%,0%,0%);fill-opacity:1;stroke:none;"/>
<path style=" stroke:none;fill-rule:nonzero;fill:rgb(0%,0%,0.392157%);fill-opacity:1;" d="M 11.898438 3.886719 C 11.699219 3.886719 11.363281 3.949219 11.367188 4.097656 C 10.796875 4.007812 10.742188 4.230469 10.777344 4.429688 C 10.832031 4.347656 10.890625 4.304688 10.945312 4.300781 C 11.019531 4.292969 11.097656 4.3125 11.183594 4.359375 C 11.261719 4.40625 11.332031 4.464844 11.390625 4.527344 C 11.191406 4.574219 11.035156 4.546875 10.875 4.519531 C 10.789062 4.503906 10.703125 4.46875 10.625 4.421875 C 10.5625 4.378906 10.539062 4.335938 10.4375 4.242188 C 10.320312 4.125 10.195312 4.160156 10.234375 4.335938 C 10.324219 4.503906 10.476562 4.578125 10.671875 4.613281 C 10.761719 4.625 10.902344 4.652344 11.058594 4.652344 C 11.21875 4.652344 11.390625 4.632812 11.488281 4.652344 C 11.433594 4.6875 11.367188 4.75 11.234375 4.769531 C 11.105469 4.792969 10.90625 4.695312 10.785156 4.671875 C 10.796875 4.765625 10.929688 4.859375 11.183594 4.910156 C 11.601562 4.992188 11.949219 5.058594 12.179688 5.179688 C 12.363281 5.277344 12.527344 5.40625 12.65625 5.5625 C 12.863281 5.792969 12.875 5.972656 12.882812 6.011719 C 12.929688 6.378906 12.792969 6.585938 12.539062 6.652344 C 12.417969 6.683594 12.1875 6.625 12.109375 6.535156 C 12.023438 6.441406 11.949219 6.285156 11.96875 6.035156 C 11.992188 5.941406 12.105469 5.6875 12.007812 5.636719 C 11.554688 5.398438 11.082031 5.1875 10.597656 5.007812 C 10.488281 4.964844 10.398438 5.109375 10.363281 5.167969 C 9.710938 5.082031 9.128906 4.71875 8.789062 4.179688 C 8.605469 3.863281 8.296875 4.179688 8.347656 4.484375 C 8.429688 4.816406 8.699219 5.058594 9.019531 5.234375 C 9.34375 5.410156 9.765625 5.574219 10.179688 5.566406 C 10.40625 5.609375 10.402344 5.882812 10.136719 5.9375 C 9.609375 5.9375 9.183594 5.929688 8.785156 5.5625 C 8.484375 5.300781 8.316406 5.613281 8.398438 5.789062 C 8.546875 6.332031 9.367188 6.488281 10.195312 6.3125 C 10.515625 6.261719 10.324219 6.585938 10.238281 6.589844 C 9.886719 6.828125 9.269531 7.058594 8.722656 6.589844 C 8.472656 6.410156 8.304688 6.558594 8.398438 6.820312 C 8.640625 7.507812 9.566406 7.363281 10.203125 7.027344 C 10.363281 6.941406 10.511719 7.140625 10.316406 7.296875 C 9.523438 7.820312 9.128906 7.828125 8.773438 7.628906 C 8.324219 7.457031 8.289062 7.929688 8.554688 8.085938 C 8.847656 8.253906 9.59375 8.128906 10.144531 7.796875 C 10.382812 7.628906 10.390625 7.890625 10.242188 7.996094 C 9.589844 8.535156 9.332031 8.675781 8.652344 8.585938 C 8.316406 8.5625 8.320312 8.957031 8.582031 9.113281 C 8.945312 9.324219 9.65625 8.976562 10.203125 8.539062 C 10.433594 8.421875 10.472656 8.613281 10.359375 8.839844 C 10.117188 9.167969 9.789062 9.425781 9.40625 9.589844 C 9.101562 9.703125 8.8125 9.6875 8.605469 9.621094 C 8.351562 9.539062 8.320312 9.789062 8.460938 10.011719 C 8.542969 10.148438 8.890625 10.191406 9.265625 10.066406 C 9.640625 9.941406 10.046875 9.640625 10.320312 9.296875 C 10.5625 9.089844 10.535156 9.363281 10.421875 9.554688 C 9.871094 10.386719 9.363281 10.695312 8.691406 10.644531 C 8.398438 10.597656 8.328125 10.8125 8.519531 11.019531 C 8.851562 11.277344 9.261719 11.269531 9.628906 11.011719 C 9.949219 10.722656 10.566406 10.078125 10.890625 9.738281 C 11.117188 9.566406 11.191406 9.738281 11.121094 10.085938 C 11.058594 10.289062 10.910156 10.503906 10.496094 10.652344 C 10.210938 10.808594 10.425781 11.019531 10.636719 11.027344 C 10.753906 11.027344 10.988281 10.894531 11.171875 10.703125 C 11.410156 10.445312 11.425781 10.273438 11.558594 9.875 C 11.679688 9.683594 11.90625 9.773438 11.90625 9.976562 C 11.796875 10.375 11.707031 10.445312 11.488281 10.609375 C 11.28125 10.796875 11.632812 10.859375 11.75 10.777344 C 12.09375 10.5625 12.214844 10.277344 12.328125 10.019531 C 12.417969 9.835938 12.652344 9.925781 12.539062 10.230469 C 12.277344 10.953125 11.839844 11.238281 11.082031 11.386719 C 11.007812 11.398438 10.960938 11.441406 10.984375 11.523438 L 11.292969 11.816406 C 10.824219 11.949219 10.441406 12.023438 9.96875 12.148438 L 9.324219 11.742188 C 9.265625 11.609375 9.234375 11.398438 8.894531 11.546875 C 8.667969 11.445312 8.558594 11.484375 8.429688 11.585938 C 8.613281 11.585938 8.691406 11.636719 8.765625 11.714844 C 8.863281 11.953125 9.082031 11.980469 9.304688 11.914062 C 9.449219 12.023438 9.523438 12.117188 9.671875 12.234375 L 8.941406 12.210938 C 8.679688 11.949219 8.480469 11.960938 8.296875 12.171875 C 8.152344 12.191406 8.09375 12.191406 7.996094 12.355469 C 8.144531 12.296875 8.242188 12.277344 8.308594 12.339844 C 8.582031 12.496094 8.761719 12.460938 8.898438 12.339844 L 9.664062 12.386719 C 9.566406 12.472656 9.4375 12.511719 9.335938 12.585938 C 8.941406 12.480469 8.734375 12.628906 8.664062 12.933594 C 8.605469 13.054688 8.589844 13.191406 8.609375 13.320312 C 8.640625 13.191406 8.714844 13.097656 8.824219 13.027344 C 9.175781 13.113281 9.304688 12.976562 9.328125 12.773438 C 9.503906 12.640625 9.757812 12.613281 9.925781 12.480469 C 10.128906 12.539062 10.222656 12.574219 10.425781 12.636719 C 10.496094 12.847656 10.660156 12.921875 10.921875 12.871094 C 11.226562 12.878906 11.171875 13.003906 11.199219 13.101562 C 11.289062 12.960938 11.28125 12.824219 11.089844 12.699219 C 11.019531 12.519531 10.863281 12.4375 10.660156 12.542969 C 10.46875 12.492188 10.421875 12.417969 10.230469 12.363281 C 10.710938 12.214844 11.050781 12.183594 11.53125 12.039062 L 11.871094 12.320312 C 11.9375 12.363281 11.992188 12.363281 12.035156 12.320312 C 12.335938 11.902344 12.472656 11.542969 12.75 11.265625 C 12.859375 11.148438 12.992188 11 13.140625 10.960938 C 13.21875 10.941406 13.308594 10.953125 13.371094 11.015625 C 13.425781 11.074219 13.476562 11.1875 13.457031 11.359375 C 13.425781 11.597656 13.367188 11.675781 13.296875 11.816406 C 13.226562 11.957031 13.136719 12.050781 13.046875 12.164062 C 12.871094 12.382812 12.636719 12.511719 12.496094 12.601562 C 12.214844 12.769531 12.101562 12.695312 11.882812 12.683594 C 11.601562 12.710938 11.53125 12.839844 11.761719 13.019531 C 11.96875 13.128906 12.164062 13.140625 12.320312 13.113281 C 12.453125 13.085938 12.609375 12.925781 12.722656 12.835938 C 12.84375 12.699219 13.054688 12.863281 12.910156 13.023438 C 12.652344 13.316406 12.398438 13.507812 12.078125 13.503906 C 11.742188 13.546875 11.808594 13.726562 12.027344 13.8125 C 12.429688 13.964844 12.789062 13.675781 12.972656 13.480469 C 13.113281 13.332031 13.210938 13.328125 13.191406 13.558594 C 13.046875 13.972656 12.859375 14.128906 12.542969 14.148438 C 12.289062 14.125 12.285156 14.316406 12.472656 14.441406 C 12.894531 14.714844 13.199219 14.242188 13.34375 13.957031 C 13.445312 13.699219 13.601562 13.820312 13.621094 14.035156 C 13.621094 14.320312 13.488281 14.550781 13.125 14.839844 C 13.402344 15.261719 13.722656 15.691406 14 16.113281 L 14.839844 7.195312 L 14 5.792969 C 13.914062 5.714844 13.613281 5.382812 13.539062 5.332031 C 13.511719 5.308594 13.496094 5.292969 13.535156 5.273438 C 13.574219 5.257812 13.667969 5.242188 13.734375 5.234375 C 13.558594 5.0625 13.402344 5.007812 13.0625 4.917969 C 13.148438 4.882812 13.226562 4.898438 13.46875 4.890625 C 13.320312 4.699219 13.117188 4.550781 12.878906 4.464844 C 13.0625 4.339844 13.097656 4.332031 13.28125 4.1875 C 12.992188 4.167969 12.707031 4.113281 12.429688 4.027344 C 12.265625 3.953125 12.085938 3.90625 11.90625 3.886719 Z M 11.933594 4.238281 C 12.101562 4.238281 12.203125 4.292969 12.203125 4.359375 C 12.203125 4.425781 12.101562 4.480469 11.933594 4.480469 C 11.769531 4.480469 11.664062 4.417969 11.664062 4.355469 C 11.664062 4.289062 11.769531 4.238281 11.933594 4.238281 "/>
<path style=" stroke:none;fill-rule:nonzero;fill:rgb(0%,0%,0.392157%);fill-opacity:1;" d="M 16.101562 3.886719 C 16.300781 3.886719 16.636719 3.949219 16.632812 4.097656 C 17.203125 4.007812 17.257812 4.230469 17.222656 4.429688 C 17.167969 4.347656 17.109375 4.304688 17.054688 4.300781 C 16.980469 4.292969 16.902344 4.3125 16.816406 4.359375 C 16.738281 4.40625 16.667969 4.464844 16.609375 4.527344 C 16.808594 4.574219 16.964844 4.546875 17.125 4.519531 C 17.210938 4.503906 17.296875 4.46875 17.375 4.421875 C 17.4375 4.378906 17.460938 4.335938 17.5625 4.242188 C 17.679688 4.125 17.804688 4.160156 17.765625 4.335938 C 17.675781 4.503906 17.523438 4.578125 17.328125 4.613281 C 17.238281 4.625 17.097656 4.652344 16.941406 4.652344 C 16.78125 4.652344 16.609375 4.632812 16.511719 4.652344 C 16.566406 4.6875 16.632812 4.75 16.765625 4.769531 C 16.894531 4.792969 17.09375 4.695312 17.214844 4.671875 C 17.203125 4.765625 17.070312 4.859375 16.816406 4.910156 C 16.398438 4.992188 16.050781 5.058594 15.820312 5.179688 C 15.636719 5.277344 15.472656 5.40625 15.34375 5.5625 C 15.136719 5.792969 15.125 5.972656 15.117188 6.011719 C 15.070312 6.378906 15.207031 6.585938 15.460938 6.652344 C 15.582031 6.683594 15.8125 6.625 15.890625 6.535156 C 15.976562 6.441406 16.050781 6.285156 16.03125 6.035156 C 16.007812 5.941406 15.894531 5.6875 15.992188 5.636719 C 16.445312 5.398438 16.917969 5.1875 17.402344 5.007812 C 17.511719 4.964844 17.601562 5.109375 17.636719 5.167969 C 18.289062 5.082031 18.871094 4.71875 19.210938 4.179688 C 19.394531 3.863281 19.703125 4.179688 19.652344 4.484375 C 19.570312 4.816406 19.300781 5.058594 18.980469 5.234375 C 18.65625 5.410156 18.234375 5.574219 17.820312 5.566406 C 17.59375 5.609375 17.597656 5.882812 17.863281 5.9375 C 18.390625 5.9375 18.816406 5.929688 19.214844 5.5625 C 19.515625 5.300781 19.683594 5.613281 19.601562 5.789062 C 19.453125 6.332031 18.632812 6.488281 17.804688 6.3125 C 17.484375 6.261719 17.675781 6.585938 17.761719 6.589844 C 18.113281 6.828125 18.730469 7.058594 19.277344 6.589844 C 19.527344 6.410156 19.695312 6.558594 19.601562 6.820312 C 19.359375 7.507812 18.433594 7.363281 17.796875 7.027344 C 17.636719 6.941406 17.488281 7.140625 17.683594 7.296875 C 18.476562 7.820312 18.871094 7.828125 19.226562 7.628906 C 19.675781 7.457031 19.710938 7.929688 19.445312 8.085938 C 19.152344 8.253906 18.40625 8.128906 17.855469 7.796875 C 17.617188 7.628906 17.609375 7.890625 17.757812 7.996094 C 18.410156 8.535156 18.667969 8.675781 19.347656 8.585938 C 19.683594 8.5625 19.679688 8.957031 19.417969 9.113281 C 19.054688 9.324219 18.34375 8.976562 17.796875 8.539062 C 17.566406 8.421875 17.527344 8.613281 17.640625 8.839844 C 17.882812 9.167969 18.210938 9.425781 18.59375 9.589844 C 18.898438 9.703125 19.1875 9.6875 19.394531 9.621094 C 19.648438 9.539062 19.679688 9.789062 19.539062 10.011719 C 19.457031 10.148438 19.109375 10.191406 18.734375 10.066406 C 18.359375 9.941406 17.953125 9.640625 17.679688 9.296875 C 17.4375 9.089844 17.464844 9.363281 17.578125 9.554688 C 18.128906 10.386719 18.636719 10.695312 19.308594 10.644531 C 19.601562 10.597656 19.671875 10.8125 19.480469 11.019531 C 19.148438 11.277344 18.738281 11.269531 18.371094 11.011719 C 18.050781 10.722656 17.433594 10.078125 17.109375 9.738281 C 16.882812 9.566406 16.808594 9.738281 16.878906 10.085938 C 16.941406 10.289062 17.089844 10.503906 17.503906 10.652344 C 17.789062 10.808594 17.574219 11.019531 17.363281 11.027344 C 17.246094 11.027344 17.011719 10.894531 16.828125 10.703125 C 16.589844 10.445312 16.574219 10.273438 16.441406 9.875 C 16.320312 9.683594 16.09375 9.773438 16.09375 9.976562 C 16.203125 10.375 16.292969 10.445312 16.511719 10.609375 C 16.71875 10.796875 16.367188 10.859375 16.25 10.777344 C 15.90625 10.5625 15.785156 10.277344 15.671875 10.019531 C 15.582031 9.835938 15.347656 9.925781 15.460938 10.230469 C 15.722656 10.953125 16.160156 11.238281 16.917969 11.386719 C 16.992188 11.398438 17.039062 11.441406 17.015625 11.523438 L 16.707031 11.816406 C 17.175781 11.949219 17.558594 12.023438 18.03125 12.148438 L 18.675781 11.742188 C 18.734375 11.609375 18.765625 11.398438 19.105469 11.546875 C 19.332031 11.445312 19.441406 11.484375 19.570312 11.585938 C 19.386719 11.585938 19.308594 11.636719 19.234375 11.714844 C 19.136719 11.953125 18.917969 11.980469 18.695312 11.914062 C 18.550781 12.023438 18.476562 12.117188 18.328125 12.234375 L 19.058594 12.210938 C 19.320312 11.949219 19.519531 11.960938 19.703125 12.171875 C 19.847656 12.191406 19.90625 12.191406 20.003906 12.355469 C 19.855469 12.296875 19.757812 12.277344 19.691406 12.339844 C 19.417969 12.496094 19.238281 12.460938 19.101562 12.339844 L 18.335938 12.386719 C 18.433594 12.472656 18.5625 12.511719 18.664062 12.585938 C 19.058594 12.480469 19.265625 12.628906 19.335938 12.933594 C 19.394531 13.054688 19.410156 13.191406 19.390625 13.320312 C 19.359375 13.191406 19.285156 13.097656 19.175781 13.027344 C 18.824219 13.113281 18.695312 12.976562 18.671875 12.773438 C 18.496094 12.640625 18.242188 12.613281 18.074219 12.480469 C 17.871094 12.539062 17.777344 12.574219 17.574219 12.636719 C 17.503906 12.847656 17.339844 12.921875 17.078125 12.871094 C 16.773438 12.878906 16.828125 13.003906 16.800781 13.101562 C 16.710938 12.960938 16.71875 12.824219 16.910156 12.699219 C 16.980469 12.519531 17.136719 12.4375 17.339844 12.542969 C 17.53125 12.492188 17.578125 12.417969 17.769531 12.363281 C 17.289062 12.214844 16.949219 12.183594 16.46875 12.039062 L 16.128906 12.320312 C 16.0625 12.363281 16.007812 12.363281 15.964844 12.320312 C 15.664062 11.902344 15.527344 11.542969 15.25 11.265625 C 15.140625 11.148438 15.007812 11 14.859375 10.960938 C 14.78125 10.941406 14.691406 10.953125 14.628906 11.015625 C 14.574219 11.074219 14.523438 11.1875 14.542969 11.359375 C 14.574219 11.597656 14.632812 11.675781 14.703125 11.816406 C 14.773438 11.957031 14.863281 12.050781 14.953125 12.164062 C 15.128906 12.382812 15.363281 12.511719 15.503906 12.601562 C 15.785156 12.769531 15.898438 12.695312 16.117188 12.683594 C 16.398438 12.710938 16.46875 12.839844 16.238281 13.019531 C 16.03125 13.128906 15.835938 13.140625 15.679688 13.113281 C 15.546875 13.085938 15.390625 12.925781 15.277344 12.835938 C 15.15625 12.699219 14.945312 12.863281 15.089844 13.023438 C 15.347656 13.316406 15.601562 13.507812 15.921875 13.503906 C 16.257812 13.546875 16.191406 13.726562 15.972656 13.8125 C 15.570312 13.964844 15.210938 13.675781 15.027344 13.480469 C 14.886719 13.332031 14.789062 13.328125 14.808594 13.558594 C 14.953125 13.972656 15.140625 14.128906 15.457031 14.148438 C 15.710938 14.125 15.714844 14.316406 15.527344 14.441406 C 15.105469 14.714844 14.800781 14.242188 14.65625 13.957031 C 14.554688 13.699219 14.398438 13.820312 14.378906 14.035156 C 14.378906 14.320312 14.511719 14.550781 14.875 14.839844 C 14.597656 15.261719 14.277344 15.691406 14 16.113281 L 13.160156 7.195312 L 14 5.792969 C 14.085938 5.714844 14.386719 5.382812 14.460938 5.332031 C 14.488281 5.308594 14.503906 5.292969 14.464844 5.273438 C 14.425781 5.257812 14.332031 5.242188 14.265625 5.234375 C 14.441406 5.0625 14.597656 5.007812 14.9375 4.917969 C 14.851562 4.882812 14.773438 4.898438 14.53125 4.890625 C 14.679688 4.699219 14.882812 4.550781 15.121094 4.464844 C 14.9375 4.339844 14.902344 4.332031 14.71875 4.1875 C 15.007812 4.167969 15.292969 4.113281 15.570312 4.027344 C 15.734375 3.953125 15.914062 3.90625 16.09375 3.886719 Z M 16.066406 4.238281 C 15.898438 4.238281 15.796875 4.292969 15.796875 4.359375 C 15.796875 4.425781 15.898438 4.480469 16.066406 4.480469 C 16.230469 4.480469 16.335938 4.417969 16.335938 4.355469 C 16.335938 4.289062 16.230469 4.238281 16.066406 4.238281 "/>
</g>
</svg>
