<svg xmlns="http://www.w3.org/2000/svg" fill="none" aria-hidden="true" viewBox="0 0 28 20">
    <g clip-path="url(#clip0)">
        <path fill="#fff" d="M0 0h28v20H0V0z"/>
        <path fill="#0B36B2" d="M0 0h28v20H0V0z"/>
        <path fill="#FFD045" fill-rule="evenodd" d="M22.667 20V0h-14l14 20z" clip-rule="evenodd"/>
        <path fill="#fff" fill-rule="evenodd" d="M17.333 18.667l-.942.276.276-.943-.277-.943.943.276.943-.276L18 18l.276.943-.943-.276zm-2.666-4l-.943.276L14 14l-.276-.943.943.276.943-.276-.277.943.277.943-.943-.276zm-2.667-4l-.943.276.276-.943-.276-.943.943.276.943-.276-.276.943.276.943-.943-.276zm-2.667-4l-.942.276L8.667 6l-.276-.943.942.276.943-.276L10 6l.276.943-.943-.276zm-2.666-4l-.943.276L6 2l-.276-.943.943.276.942-.276L7.333 2l.276.943-.942-.276z" clip-rule="evenodd"/>
    </g>
    <defs>
        <clipPath id="clip0">
            <path fill="#fff" d="M0 0h28v20H0z"/>
        </clipPath>
    </defs>
</svg>
