<svg xmlns="http://www.w3.org/2000/svg" fill="none" aria-hidden="true" viewBox="0 0 28 20">
    <g clip-path="url(#clip0)">
        <path fill="#fff" d="M0 0h28v20H0V0z"/>
        <path fill="#2D754D" fill-rule="evenodd" d="M0 20h28v-5.333H0V20z" clip-rule="evenodd"/>
        <path fill="#25B1EB" fill-rule="evenodd" d="M0 9.333h28V0H0v9.333z" clip-rule="evenodd"/>
        <path fill="#FECB2F" fill-rule="evenodd" d="M0 14.667h28V9.333H0v5.334zM21.333 6l-1.02 1.13.078-1.52-1.521.077L20 4.667l-1.13-1.02 1.52.077-.077-1.521 1.02 1.13 1.02-1.13-.077 1.52 1.521-.077-1.13 1.02 1.13 1.021-1.52-.078.077 1.521L21.334 6h-.001z" clip-rule="evenodd"/>
    </g>
    <defs>
        <clipPath id="clip0">
            <path fill="#fff" d="M0 0h28v20H0z"/>
        </clipPath>
    </defs>
</svg>
