<?xml version="1.0" encoding="UTF-8"?>
<svg xmlns="http://www.w3.org/2000/svg" xmlns:xlink="http://www.w3.org/1999/xlink" width="28px" height="20px" viewBox="0 0 28 20" version="1.1">
<g id="surface1">
<path style=" stroke:none;fill-rule:nonzero;fill:rgb(2.745098%,53.725493%,18.82353%);fill-opacity:1;" d="M 0 14 L 28 14 L 28 20 L 0 20 Z M 0 14 "/>
<path style=" stroke:none;fill-rule:nonzero;fill:rgb(100%,100%,100%);fill-opacity:1;" d="M 0 6 L 28 6 L 28 14 L 0 14 Z M 0 6 "/>
<path style=" stroke:none;fill-rule:nonzero;fill:rgb(0%,0%,0.392157%);fill-opacity:1;" d="M 0 0 L 28 0 L 28 6 L 0 6 Z M 0 0 "/>
<path style=" stroke:none;fill-rule:nonzero;fill:rgb(85.490197%,7.058824%,10.196079%);fill-opacity:1;" d="M 0 7 L 28 7 L 28 13 L 0 13 Z M 0 7 "/>
<path style=" stroke:none;fill-rule:nonzero;fill:rgb(5.882353%,27.843139%,68.627453%);fill-opacity:1;" d="M 0 0 L 18.1875 10 L 0 20 Z M 0 0 "/>
<path style=" stroke:none;fill-rule:nonzero;fill:rgb(98.823529%,86.666667%,3.529412%);fill-opacity:1;" d="M 8.78125 8.117188 L 2.699219 10 L 8.78125 11.878906 L 5.027344 6.957031 L 5.027344 13.042969 Z M 8.78125 8.117188 "/>
</g>
</svg>
