<?xml version="1.0" encoding="UTF-8"?>
<svg xmlns="http://www.w3.org/2000/svg" xmlns:xlink="http://www.w3.org/1999/xlink" width="28px" height="20px" viewBox="0 0 28 20" version="1.1">
<g id="surface1">
<rect x="0" y="0" width="28" height="20" style="fill:rgb(81.176472%,7.843138%,16.862746%);fill-opacity:1;stroke:none;"/>
<path style=" stroke:none;fill-rule:nonzero;fill:rgb(0%,14.117648%,49.019608%);fill-opacity:1;" d="M 0 0 L 28 0 L 28 13.332031 L 0 13.332031 Z M 0 0 "/>
<path style=" stroke:none;fill-rule:nonzero;fill:rgb(100%,80.000001%,0%);fill-opacity:1;" d="M 0 0 L 28 0 L 28 6.667969 L 0 6.667969 Z M 0 0 "/>
<path style=" stroke:none;fill-rule:nonzero;fill:rgb(100%,100%,100%);fill-opacity:1;" d="M 15.246094 7.269531 L 14.839844 8.015625 L 15.296875 8.242188 Z M 15.246094 7.269531 "/>
<path style=" stroke:none;fill-rule:nonzero;fill:rgb(100%,100%,100%);fill-opacity:1;" d="M 15.246094 7.269531 L 15.359375 8.101562 L 14.847656 8.167969 Z M 15.246094 7.269531 "/>
<path style=" stroke:none;fill-rule:nonzero;fill:rgb(100%,100%,100%);fill-opacity:1;" d="M 15.960938 7.976562 L 15.09375 7.839844 L 15.003906 8.320312 Z M 15.960938 7.976562 "/>
<path style=" stroke:none;fill-rule:nonzero;fill:rgb(100%,100%,100%);fill-opacity:1;" d="M 15.960938 7.976562 L 15.164062 8.335938 L 14.941406 7.894531 Z M 15.960938 7.976562 "/>
<path style=" stroke:none;fill-rule:nonzero;fill:rgb(100%,100%,100%);fill-opacity:1;" d="M 14.320312 7.699219 L 14.941406 8.296875 L 15.308594 7.953125 Z M 14.320312 7.699219 "/>
<path style=" stroke:none;fill-rule:nonzero;fill:rgb(100%,100%,100%);fill-opacity:1;" d="M 14.320312 7.699219 L 15.1875 7.855469 L 15.09375 8.335938 Z M 14.320312 7.699219 "/>
<path style=" stroke:none;fill-rule:nonzero;fill:rgb(100%,100%,100%);fill-opacity:1;" d="M 15.476562 8.839844 L 15.34375 8.011719 L 14.835938 8.082031 Z M 15.476562 8.839844 "/>
<path style=" stroke:none;fill-rule:nonzero;fill:rgb(100%,100%,100%);fill-opacity:1;" d="M 15.476562 8.839844 L 14.875 8.230469 L 15.246094 7.890625 Z M 15.476562 8.839844 "/>
<path style=" stroke:none;fill-rule:nonzero;fill:rgb(100%,100%,100%);fill-opacity:1;" d="M 14.464844 8.671875 L 15.25 8.292969 L 15.023438 7.855469 Z M 14.464844 8.671875 "/>
<path style=" stroke:none;fill-rule:nonzero;fill:rgb(100%,100%,100%);fill-opacity:1;" d="M 14.464844 8.671875 L 14.886719 7.933594 L 15.339844 8.164062 Z M 14.464844 8.671875 "/>
<path style=" stroke:none;fill-rule:nonzero;fill:rgb(100%,100%,100%);fill-opacity:1;" d="M 17.585938 8.082031 L 16.941406 8.648438 L 17.285156 9.011719 Z M 17.585938 8.082031 "/>
<path style=" stroke:none;fill-rule:nonzero;fill:rgb(100%,100%,100%);fill-opacity:1;" d="M 17.585938 8.082031 L 17.394531 8.898438 L 16.890625 8.796875 Z M 17.585938 8.082031 "/>
<path style=" stroke:none;fill-rule:nonzero;fill:rgb(100%,100%,100%);fill-opacity:1;" d="M 18.007812 8.976562 L 17.238281 8.566406 L 16.984375 8.992188 Z M 18.007812 8.976562 "/>
<path style=" stroke:none;fill-rule:nonzero;fill:rgb(100%,100%,100%);fill-opacity:1;" d="M 18.007812 8.976562 L 17.128906 9.054688 L 17.078125 8.566406 Z M 18.007812 8.976562 "/>
<path style=" stroke:none;fill-rule:nonzero;fill:rgb(100%,100%,100%);fill-opacity:1;" d="M 16.566406 8.183594 L 16.929688 8.945312 L 17.402344 8.746094 Z M 16.566406 8.183594 "/>
<path style=" stroke:none;fill-rule:nonzero;fill:rgb(100%,100%,100%);fill-opacity:1;" d="M 16.566406 8.183594 L 17.320312 8.613281 L 17.0625 9.035156 Z M 16.566406 8.183594 "/>
<path style=" stroke:none;fill-rule:nonzero;fill:rgb(100%,100%,100%);fill-opacity:1;" d="M 17.242188 9.632812 L 17.414062 8.8125 L 16.910156 8.710938 Z M 17.242188 9.632812 "/>
<path style=" stroke:none;fill-rule:nonzero;fill:rgb(100%,100%,100%);fill-opacity:1;" d="M 17.242188 9.632812 L 16.894531 8.863281 L 17.363281 8.664062 Z M 17.242188 9.632812 "/>
<path style=" stroke:none;fill-rule:nonzero;fill:rgb(100%,100%,100%);fill-opacity:1;" d="M 16.351562 9.144531 L 17.226562 9.046875 L 17.167969 8.558594 Z M 16.351562 9.144531 "/>
<path style=" stroke:none;fill-rule:nonzero;fill:rgb(100%,100%,100%);fill-opacity:1;" d="M 16.351562 9.144531 L 17.011719 8.589844 L 17.355469 8.953125 Z M 16.351562 9.144531 "/>
<path style=" stroke:none;fill-rule:nonzero;fill:rgb(100%,100%,100%);fill-opacity:1;" d="M 19.496094 9.609375 L 18.683594 9.929688 L 18.878906 10.382812 Z M 19.496094 9.609375 "/>
<path style=" stroke:none;fill-rule:nonzero;fill:rgb(100%,100%,100%);fill-opacity:1;" d="M 19.496094 9.609375 L 19.023438 10.3125 L 18.585938 10.050781 Z M 19.496094 9.609375 "/>
<path style=" stroke:none;fill-rule:nonzero;fill:rgb(100%,100%,100%);fill-opacity:1;" d="M 19.566406 10.585938 L 18.996094 9.949219 L 18.601562 10.265625 Z M 19.566406 10.585938 "/>
<path style=" stroke:none;fill-rule:nonzero;fill:rgb(100%,100%,100%);fill-opacity:1;" d="M 19.566406 10.585938 L 18.714844 10.371094 L 18.84375 9.898438 Z M 19.566406 10.585938 "/>
<path style=" stroke:none;fill-rule:nonzero;fill:rgb(100%,100%,100%);fill-opacity:1;" d="M 18.5 9.371094 L 18.570312 10.207031 L 19.082031 10.171875 Z M 18.5 9.371094 "/>
<path style=" stroke:none;fill-rule:nonzero;fill:rgb(100%,100%,100%);fill-opacity:1;" d="M 18.5 9.371094 L 19.054688 10.019531 L 18.660156 10.332031 Z M 18.5 9.371094 "/>
<path style=" stroke:none;fill-rule:nonzero;fill:rgb(100%,100%,100%);fill-opacity:1;" d="M 18.613281 10.953125 L 19.074219 10.234375 L 18.636719 9.976562 Z M 18.613281 10.953125 "/>
<path style=" stroke:none;fill-rule:nonzero;fill:rgb(100%,100%,100%);fill-opacity:1;" d="M 18.613281 10.953125 L 18.5625 10.113281 L 19.078125 10.082031 Z M 18.613281 10.953125 "/>
<path style=" stroke:none;fill-rule:nonzero;fill:rgb(100%,100%,100%);fill-opacity:1;" d="M 17.953125 10.203125 L 18.808594 10.394531 L 18.933594 9.917969 Z M 17.953125 10.203125 "/>
<path style=" stroke:none;fill-rule:nonzero;fill:rgb(100%,100%,100%);fill-opacity:1;" d="M 17.953125 10.203125 L 18.773438 9.894531 L 18.964844 10.351562 Z M 17.953125 10.203125 "/>
<path style=" stroke:none;fill-rule:nonzero;fill:rgb(100%,100%,100%);fill-opacity:1;" d="M 20.742188 11.664062 L 19.863281 11.703125 L 19.882812 12.191406 Z M 20.742188 11.664062 "/>
<path style=" stroke:none;fill-rule:nonzero;fill:rgb(100%,100%,100%);fill-opacity:1;" d="M 20.742188 11.664062 L 20.042969 12.171875 L 19.726562 11.785156 Z M 20.742188 11.664062 "/>
<path style=" stroke:none;fill-rule:nonzero;fill:rgb(100%,100%,100%);fill-opacity:1;" d="M 20.457031 12.605469 L 20.148438 11.820312 L 19.664062 11.988281 Z M 20.457031 12.605469 "/>
<path style=" stroke:none;fill-rule:nonzero;fill:rgb(100%,100%,100%);fill-opacity:1;" d="M 20.457031 12.605469 L 19.734375 12.128906 L 20.023438 11.722656 Z M 20.457031 12.605469 "/>
<path style=" stroke:none;fill-rule:nonzero;fill:rgb(100%,100%,100%);fill-opacity:1;" d="M 19.890625 11.113281 L 19.65625 11.921875 L 20.152344 12.058594 Z M 19.890625 11.113281 "/>
<path style=" stroke:none;fill-rule:nonzero;fill:rgb(100%,100%,100%);fill-opacity:1;" d="M 19.890625 11.113281 L 20.179688 11.90625 L 19.695312 12.070312 Z M 19.890625 11.113281 "/>
<path style=" stroke:none;fill-rule:nonzero;fill:rgb(100%,100%,100%);fill-opacity:1;" d="M 19.429688 12.640625 L 20.117188 12.117188 L 19.800781 11.730469 Z M 19.429688 12.640625 "/>
<path style=" stroke:none;fill-rule:nonzero;fill:rgb(100%,100%,100%);fill-opacity:1;" d="M 19.429688 12.640625 L 19.683594 11.835938 L 20.175781 11.972656 Z M 19.429688 12.640625 "/>
<path style=" stroke:none;fill-rule:nonzero;fill:rgb(100%,100%,100%);fill-opacity:1;" d="M 19.078125 11.71875 L 19.8125 12.179688 L 20.101562 11.773438 Z M 19.078125 11.71875 "/>
<path style=" stroke:none;fill-rule:nonzero;fill:rgb(100%,100%,100%);fill-opacity:1;" d="M 19.078125 11.71875 L 19.957031 11.699219 L 19.976562 12.1875 Z M 19.078125 11.71875 "/>
<path style=" stroke:none;fill-rule:nonzero;fill:rgb(100%,100%,100%);fill-opacity:1;" d="M 7.257812 11.664062 L 7.957031 12.171875 L 8.273438 11.785156 Z M 7.257812 11.664062 "/>
<path style=" stroke:none;fill-rule:nonzero;fill:rgb(100%,100%,100%);fill-opacity:1;" d="M 7.257812 11.664062 L 8.136719 11.703125 L 8.117188 12.191406 Z M 7.257812 11.664062 "/>
<path style=" stroke:none;fill-rule:nonzero;fill:rgb(100%,100%,100%);fill-opacity:1;" d="M 8.109375 11.113281 L 7.820312 11.90625 L 8.304688 12.070312 Z M 8.109375 11.113281 "/>
<path style=" stroke:none;fill-rule:nonzero;fill:rgb(100%,100%,100%);fill-opacity:1;" d="M 8.109375 11.113281 L 8.34375 11.921875 L 7.847656 12.058594 Z M 8.109375 11.113281 "/>
<path style=" stroke:none;fill-rule:nonzero;fill:rgb(100%,100%,100%);fill-opacity:1;" d="M 7.542969 12.605469 L 8.265625 12.128906 L 7.976562 11.722656 Z M 7.542969 12.605469 "/>
<path style=" stroke:none;fill-rule:nonzero;fill:rgb(100%,100%,100%);fill-opacity:1;" d="M 7.542969 12.605469 L 7.851562 11.820312 L 8.335938 11.988281 Z M 7.542969 12.605469 "/>
<path style=" stroke:none;fill-rule:nonzero;fill:rgb(100%,100%,100%);fill-opacity:1;" d="M 8.921875 11.71875 L 8.042969 11.699219 L 8.023438 12.1875 Z M 8.921875 11.71875 "/>
<path style=" stroke:none;fill-rule:nonzero;fill:rgb(100%,100%,100%);fill-opacity:1;" d="M 8.921875 11.71875 L 8.1875 12.179688 L 7.898438 11.773438 Z M 8.921875 11.71875 "/>
<path style=" stroke:none;fill-rule:nonzero;fill:rgb(100%,100%,100%);fill-opacity:1;" d="M 8.570312 12.640625 L 8.316406 11.835938 L 7.824219 11.972656 Z M 8.570312 12.640625 "/>
<path style=" stroke:none;fill-rule:nonzero;fill:rgb(100%,100%,100%);fill-opacity:1;" d="M 8.570312 12.640625 L 7.882812 12.117188 L 8.199219 11.730469 Z M 8.570312 12.640625 "/>
<path style=" stroke:none;fill-rule:nonzero;fill:rgb(100%,100%,100%);fill-opacity:1;" d="M 8.503906 9.609375 L 8.976562 10.3125 L 9.414062 10.050781 Z M 8.503906 9.609375 "/>
<path style=" stroke:none;fill-rule:nonzero;fill:rgb(100%,100%,100%);fill-opacity:1;" d="M 8.503906 9.609375 L 9.316406 9.929688 L 9.121094 10.382812 Z M 8.503906 9.609375 "/>
<path style=" stroke:none;fill-rule:nonzero;fill:rgb(100%,100%,100%);fill-opacity:1;" d="M 9.5 9.371094 L 8.945312 10.019531 L 9.339844 10.332031 Z M 9.5 9.371094 "/>
<path style=" stroke:none;fill-rule:nonzero;fill:rgb(100%,100%,100%);fill-opacity:1;" d="M 9.5 9.371094 L 9.429688 10.207031 L 8.917969 10.171875 Z M 9.5 9.371094 "/>
<path style=" stroke:none;fill-rule:nonzero;fill:rgb(100%,100%,100%);fill-opacity:1;" d="M 8.433594 10.585938 L 9.285156 10.371094 L 9.15625 9.898438 Z M 8.433594 10.585938 "/>
<path style=" stroke:none;fill-rule:nonzero;fill:rgb(100%,100%,100%);fill-opacity:1;" d="M 8.433594 10.585938 L 9.003906 9.949219 L 9.398438 10.265625 Z M 8.433594 10.585938 "/>
<path style=" stroke:none;fill-rule:nonzero;fill:rgb(100%,100%,100%);fill-opacity:1;" d="M 10.046875 10.203125 L 9.226562 9.894531 L 9.035156 10.351562 Z M 10.046875 10.203125 "/>
<path style=" stroke:none;fill-rule:nonzero;fill:rgb(100%,100%,100%);fill-opacity:1;" d="M 10.046875 10.203125 L 9.191406 10.394531 L 9.066406 9.917969 Z M 10.046875 10.203125 "/>
<path style=" stroke:none;fill-rule:nonzero;fill:rgb(100%,100%,100%);fill-opacity:1;" d="M 9.386719 10.953125 L 9.4375 10.113281 L 8.921875 10.082031 Z M 9.386719 10.953125 "/>
<path style=" stroke:none;fill-rule:nonzero;fill:rgb(100%,100%,100%);fill-opacity:1;" d="M 9.386719 10.953125 L 8.925781 10.234375 L 9.363281 9.976562 Z M 9.386719 10.953125 "/>
<path style=" stroke:none;fill-rule:nonzero;fill:rgb(100%,100%,100%);fill-opacity:1;" d="M 10.414062 8.082031 L 10.605469 8.898438 L 11.109375 8.796875 Z M 10.414062 8.082031 "/>
<path style=" stroke:none;fill-rule:nonzero;fill:rgb(100%,100%,100%);fill-opacity:1;" d="M 10.414062 8.082031 L 11.058594 8.648438 L 10.714844 9.011719 Z M 10.414062 8.082031 "/>
<path style=" stroke:none;fill-rule:nonzero;fill:rgb(100%,100%,100%);fill-opacity:1;" d="M 11.433594 8.183594 L 10.679688 8.613281 L 10.9375 9.035156 Z M 11.433594 8.183594 "/>
<path style=" stroke:none;fill-rule:nonzero;fill:rgb(100%,100%,100%);fill-opacity:1;" d="M 11.433594 8.183594 L 11.070312 8.945312 L 10.597656 8.746094 Z M 11.433594 8.183594 "/>
<path style=" stroke:none;fill-rule:nonzero;fill:rgb(100%,100%,100%);fill-opacity:1;" d="M 9.992188 8.976562 L 10.871094 9.054688 L 10.921875 8.566406 Z M 9.992188 8.976562 "/>
<path style=" stroke:none;fill-rule:nonzero;fill:rgb(100%,100%,100%);fill-opacity:1;" d="M 9.992188 8.976562 L 10.761719 8.566406 L 11.015625 8.992188 Z M 9.992188 8.976562 "/>
<path style=" stroke:none;fill-rule:nonzero;fill:rgb(100%,100%,100%);fill-opacity:1;" d="M 11.648438 9.144531 L 10.988281 8.589844 L 10.644531 8.953125 Z M 11.648438 9.144531 "/>
<path style=" stroke:none;fill-rule:nonzero;fill:rgb(100%,100%,100%);fill-opacity:1;" d="M 11.648438 9.144531 L 10.773438 9.046875 L 10.832031 8.558594 Z M 11.648438 9.144531 "/>
<path style=" stroke:none;fill-rule:nonzero;fill:rgb(100%,100%,100%);fill-opacity:1;" d="M 10.757812 9.632812 L 11.105469 8.863281 L 10.636719 8.664062 Z M 10.757812 9.632812 "/>
<path style=" stroke:none;fill-rule:nonzero;fill:rgb(100%,100%,100%);fill-opacity:1;" d="M 10.757812 9.632812 L 10.585938 8.8125 L 11.089844 8.710938 Z M 10.757812 9.632812 "/>
<path style=" stroke:none;fill-rule:nonzero;fill:rgb(100%,100%,100%);fill-opacity:1;" d="M 12.753906 7.269531 L 12.640625 8.101562 L 13.152344 8.167969 Z M 12.753906 7.269531 "/>
<path style=" stroke:none;fill-rule:nonzero;fill:rgb(100%,100%,100%);fill-opacity:1;" d="M 12.753906 7.269531 L 13.160156 8.015625 L 12.703125 8.242188 Z M 12.753906 7.269531 "/>
<path style=" stroke:none;fill-rule:nonzero;fill:rgb(100%,100%,100%);fill-opacity:1;" d="M 13.679688 7.699219 L 12.8125 7.855469 L 12.90625 8.335938 Z M 13.679688 7.699219 "/>
<path style=" stroke:none;fill-rule:nonzero;fill:rgb(100%,100%,100%);fill-opacity:1;" d="M 13.679688 7.699219 L 13.058594 8.296875 L 12.691406 7.953125 Z M 13.679688 7.699219 "/>
<path style=" stroke:none;fill-rule:nonzero;fill:rgb(100%,100%,100%);fill-opacity:1;" d="M 12.039062 7.976562 L 12.835938 8.335938 L 13.058594 7.894531 Z M 12.039062 7.976562 "/>
<path style=" stroke:none;fill-rule:nonzero;fill:rgb(100%,100%,100%);fill-opacity:1;" d="M 12.039062 7.976562 L 12.90625 7.839844 L 12.996094 8.320312 Z M 12.039062 7.976562 "/>
<path style=" stroke:none;fill-rule:nonzero;fill:rgb(100%,100%,100%);fill-opacity:1;" d="M 13.535156 8.671875 L 13.113281 7.933594 L 12.660156 8.164062 Z M 13.535156 8.671875 "/>
<path style=" stroke:none;fill-rule:nonzero;fill:rgb(100%,100%,100%);fill-opacity:1;" d="M 13.535156 8.671875 L 12.75 8.292969 L 12.976562 7.855469 Z M 13.535156 8.671875 "/>
<path style=" stroke:none;fill-rule:nonzero;fill:rgb(100%,100%,100%);fill-opacity:1;" d="M 12.523438 8.839844 L 13.125 8.230469 L 12.753906 7.890625 Z M 12.523438 8.839844 "/>
<path style=" stroke:none;fill-rule:nonzero;fill:rgb(100%,100%,100%);fill-opacity:1;" d="M 12.523438 8.839844 L 12.65625 8.011719 L 13.164062 8.082031 Z M 12.523438 8.839844 "/>
</g>
</svg>
