<?xml version="1.0" encoding="UTF-8"?>
<svg xmlns="http://www.w3.org/2000/svg" xmlns:xlink="http://www.w3.org/1999/xlink" width="28px" height="20px" viewBox="0 0 28 20" version="1.1">
<defs>
<clipPath id="clip1">
  <path d="M 0 0 L 27.996094 0 L 27.996094 20 L 0 20 Z M 0 0 "/>
</clipPath>
<clipPath id="clip2">
  <path d="M 0 2 L 27.996094 2 L 27.996094 18 L 0 18 Z M 0 2 "/>
</clipPath>
<clipPath id="clip3">
  <path d="M 0 5 L 27.996094 5 L 27.996094 15 L 0 15 Z M 0 5 "/>
</clipPath>
<clipPath id="clip4">
  <path d="M 0 8 L 27.996094 8 L 27.996094 12 L 0 12 Z M 0 8 "/>
</clipPath>
</defs>
<g id="surface1">
<g clip-path="url(#clip1)" clip-rule="nonzero">
<path style=" stroke:none;fill-rule:nonzero;fill:rgb(0%,39.215687%,0%);fill-opacity:1;" d="M -0.101562 -0.00390625 L 42.976562 -0.00390625 L 42.976562 19.992188 L -0.101562 19.992188 Z M -0.101562 -0.00390625 "/>
</g>
<g clip-path="url(#clip2)" clip-rule="nonzero">
<path style=" stroke:none;fill-rule:nonzero;fill:rgb(100%,82.352942%,0%);fill-opacity:1;" d="M -0.101562 2.851562 L 42.976562 2.851562 L 42.976562 17.136719 L -0.101562 17.136719 Z M -0.101562 2.851562 "/>
</g>
<g clip-path="url(#clip3)" clip-rule="nonzero">
<path style=" stroke:none;fill-rule:nonzero;fill:rgb(83.137256%,0%,0%);fill-opacity:1;" d="M -0.101562 5.707031 L 42.976562 5.707031 L 42.976562 14.277344 L -0.101562 14.277344 Z M -0.101562 5.707031 "/>
</g>
<g clip-path="url(#clip4)" clip-rule="nonzero">
<path style=" stroke:none;fill-rule:nonzero;fill:rgb(0%,0%,0.392157%);fill-opacity:1;" d="M -0.101562 8.566406 L 42.976562 8.566406 L 42.976562 11.421875 L -0.101562 11.421875 Z M -0.101562 8.566406 "/>
</g>
<path style="fill-rule:nonzero;fill:rgb(0%,0%,0%);fill-opacity:1;stroke-width:20;stroke-linecap:butt;stroke-linejoin:miter;stroke:rgb(0%,0%,0%);stroke-opacity:1;stroke-miterlimit:4;" d="M -0.0182807 0.00546998 L -0.0182807 420.01792 L 279.980265 209.97067 Z M -0.0182807 0.00546998 " transform="matrix(0.0512837,0,0,0.0476083,-0.100625,-0.00416667)"/>
<path style=" stroke:none;fill-rule:nonzero;fill:rgb(100%,100%,100%);fill-opacity:1;" d="M -0.101562 -0.00390625 L -0.101562 19.992188 L 14.257812 9.992188 Z M -0.101562 -0.00390625 "/>
<path style=" stroke:none;fill-rule:nonzero;fill:rgb(83.137256%,0%,0%);fill-opacity:1;" d="M 5.359375 4.964844 L 8.207031 13.09375 L 0.761719 8.070312 L 9.964844 8.070312 L 2.515625 13.09375 Z M 5.359375 4.964844 "/>
<path style=" stroke:none;fill-rule:nonzero;fill:rgb(100%,80.000001%,0%);fill-opacity:1;" d="M 4.144531 12.074219 L 4.648438 11.988281 L 5.578125 11.953125 L 5.921875 11.984375 L 6.6875 12.101562 L 6.746094 12.03125 L 6.746094 11.515625 L 6.839844 11.074219 L 6.992188 10.625 L 7.160156 10.269531 L 7.375 9.898438 L 7.726562 9.980469 L 7.816406 9.980469 L 7.828125 9.917969 L 7.089844 9.332031 L 6.320312 8.785156 L 5.207031 8.011719 L 5.105469 7.988281 L 4.988281 7.179688 L 4.898438 6.9375 L 4.78125 6.84375 L 4.5625 6.773438 L 4.316406 6.785156 L 4.203125 6.84375 L 3.964844 6.890625 L 3.84375 6.910156 L 3.761719 7 L 3.75 7.113281 L 4.09375 7.121094 L 4.179688 7.15625 L 4.171875 7.1875 L 3.976562 7.214844 L 3.882812 7.242188 L 3.992188 7.316406 L 4.105469 7.355469 L 4.25 7.402344 L 4.277344 7.5 L 4.289062 8.726562 L 4.210938 8.917969 L 4.1875 9.273438 L 4.300781 9.703125 L 4.011719 10.007812 L 3.847656 10.277344 L 3.816406 10.445312 L 3.730469 10.613281 L 3.71875 10.71875 L 3.777344 10.832031 L 3.996094 11.507812 L 4.109375 12.066406 Z M 4.144531 12.074219 "/>
<path style=" stroke:none;fill-rule:nonzero;fill:rgb(0%,0%,0%);fill-opacity:1;" d="M 4.414062 6.757812 C 4.320312 6.757812 4.277344 6.765625 4.191406 6.808594 C 4.121094 6.847656 4.039062 6.871094 3.957031 6.875 C 3.828125 6.875 3.726562 6.960938 3.726562 7.070312 L 3.726562 7.140625 L 3.910156 7.136719 C 4.453125 7.152344 3.960938 7.199219 3.921875 7.203125 C 3.785156 7.226562 3.949219 7.328125 4.109375 7.378906 C 4.277344 7.425781 4.269531 7.398438 4.269531 8.09375 C 4.269531 8.660156 4.269531 8.742188 4.21875 8.871094 C 4.152344 9.058594 4.152344 9.347656 4.21875 9.535156 C 4.25 9.613281 4.269531 9.679688 4.269531 9.695312 C 4.269531 9.707031 4.1875 9.792969 4.089844 9.898438 C 3.910156 10.089844 3.800781 10.285156 3.800781 10.421875 C 3.796875 10.464844 3.777344 10.507812 3.75 10.546875 C 3.683594 10.625 3.683594 10.765625 3.746094 10.816406 C 3.8125 10.875 4.085938 11.855469 4.089844 12.039062 C 4.089844 12.105469 4.097656 12.105469 4.515625 12.03125 C 4.851562 11.96875 5.648438 11.953125 6.054688 12.003906 C 6.238281 12.027344 6.453125 12.066406 6.53125 12.078125 C 6.777344 12.140625 6.765625 12.148438 6.765625 11.875 C 6.769531 11.4375 6.855469 11.007812 7.027344 10.601562 C 7.125 10.371094 7.246094 10.148438 7.382812 9.9375 C 7.382812 9.9375 7.472656 9.945312 7.585938 9.972656 C 7.796875 10.023438 7.859375 10.015625 7.859375 9.925781 C 7.859375 9.878906 7.636719 9.707031 6.554688 8.925781 C 6.121094 8.59375 5.667969 8.28125 5.207031 7.980469 C 5.171875 7.980469 5.152344 7.96875 5.140625 7.945312 L 5.0625 7.496094 C 5.027344 7.261719 4.976562 7.03125 4.957031 6.984375 C 4.886719 6.84375 4.742188 6.769531 4.515625 6.757812 Z M 4.417969 6.804688 L 4.519531 6.804688 C 4.859375 6.824219 4.921875 6.910156 5.011719 7.46875 L 5.074219 7.917969 C 5.078125 7.953125 5.023438 8.003906 4.910156 8.074219 C 4.714844 8.203125 4.542969 8.355469 4.398438 8.527344 L 4.332031 8.613281 L 4.316406 8.414062 L 4.316406 7.851562 C 4.332031 7.4375 4.316406 7.398438 4.171875 7.351562 C 4.054688 7.3125 3.898438 7.273438 3.941406 7.25 C 3.992188 7.222656 4.042969 7.242188 4.167969 7.207031 C 4.21875 7.199219 4.210938 7.203125 4.203125 7.164062 C 4.191406 7.105469 4.121094 7.070312 3.929688 7.078125 C 3.777344 7.089844 3.761719 7.085938 3.769531 7.046875 C 3.796875 6.96875 3.871094 6.925781 4.003906 6.910156 C 4.082031 6.902344 4.15625 6.878906 4.226562 6.847656 C 4.285156 6.816406 4.351562 6.796875 4.417969 6.800781 Z M 5.179688 8.03125 L 5.203125 8.03125 C 5.289062 8.046875 7.808594 9.875 7.808594 9.925781 C 7.808594 9.949219 7.789062 9.960938 7.757812 9.960938 C 7.734375 9.960938 7.09375 9.792969 6.335938 9.589844 C 5.125 9.253906 4.949219 9.207031 4.898438 9.144531 C 4.824219 9.0625 4.820312 8.9375 4.894531 8.851562 C 4.917969 8.824219 4.9375 8.789062 4.945312 8.753906 C 4.945312 8.699219 4.816406 8.839844 4.792969 8.921875 C 4.765625 9.019531 4.816406 9.179688 4.894531 9.230469 C 4.925781 9.253906 5.15625 9.328125 5.40625 9.398438 C 5.839844 9.511719 5.867188 9.527344 5.890625 9.59375 C 5.941406 9.75 5.761719 9.9375 5.503906 9.988281 C 5.410156 10.011719 5.316406 10.050781 5.238281 10.101562 C 4.972656 10.308594 4.675781 10.476562 4.355469 10.597656 C 4.335938 10.613281 4.308594 10.6875 4.292969 10.761719 C 4.261719 10.917969 4.253906 10.941406 4.203125 10.941406 C 4.175781 10.945312 4.171875 10.921875 4.191406 10.875 C 4.226562 10.777344 4.222656 10.664062 4.1875 10.664062 C 4.164062 10.664062 4.152344 10.695312 4.152344 10.75 C 4.152344 10.796875 4.136719 10.855469 4.113281 10.871094 C 4.089844 10.898438 4.085938 10.878906 4.09375 10.761719 C 4.105469 10.679688 4.097656 10.617188 4.089844 10.617188 C 4.0625 10.617188 4.015625 10.734375 4.003906 10.839844 C 3.996094 10.90625 3.984375 10.898438 3.972656 10.828125 C 3.957031 10.769531 3.960938 10.730469 4.007812 10.660156 C 4.035156 10.609375 4.054688 10.550781 4.058594 10.492188 C 4.058594 10.429688 4.109375 10.371094 4.351562 10.144531 C 4.503906 10 4.695312 9.8125 4.761719 9.730469 C 4.878906 9.597656 4.882812 9.589844 4.878906 9.449219 C 4.878906 9.375 4.867188 9.304688 4.859375 9.292969 C 4.828125 9.265625 4.785156 9.417969 4.808594 9.5 C 4.816406 9.574219 4.808594 9.597656 4.636719 9.785156 C 4.515625 9.914062 4.386719 10.039062 4.253906 10.15625 C 4.054688 10.328125 3.980469 10.421875 3.980469 10.507812 C 3.980469 10.535156 3.960938 10.601562 3.929688 10.664062 C 3.898438 10.726562 3.890625 10.789062 3.898438 10.804688 C 3.90625 10.820312 3.902344 10.820312 3.882812 10.804688 C 3.859375 10.785156 3.859375 10.734375 3.878906 10.660156 C 3.890625 10.621094 3.894531 10.578125 3.890625 10.535156 C 3.863281 10.488281 3.828125 10.546875 3.8125 10.664062 C 3.800781 10.730469 3.785156 10.785156 3.769531 10.773438 C 3.734375 10.753906 3.746094 10.632812 3.792969 10.566406 C 3.816406 10.53125 3.84375 10.457031 3.859375 10.394531 C 3.894531 10.21875 3.976562 10.074219 4.15625 9.882812 L 4.320312 9.703125 L 4.269531 9.546875 C 4.199219 9.332031 4.195312 9.109375 4.257812 8.894531 C 4.324219 8.714844 4.460938 8.53125 4.667969 8.335938 C 4.875 8.152344 5.074219 8.035156 5.179688 8.03125 M 5.949219 9.566406 C 5.964844 9.5625 5.976562 9.566406 5.988281 9.570312 C 5.996094 9.578125 6.003906 9.585938 6.003906 9.59375 C 5.996094 9.605469 5.976562 9.613281 5.957031 9.613281 C 5.9375 9.613281 5.921875 9.605469 5.914062 9.59375 C 5.914062 9.578125 5.929688 9.566406 5.949219 9.566406 M 6.078125 9.578125 C 6.09375 9.578125 6.105469 9.582031 6.113281 9.585938 C 6.125 9.59375 6.128906 9.601562 6.128906 9.609375 C 6.125 9.621094 6.105469 9.628906 6.085938 9.628906 C 6.066406 9.628906 6.050781 9.621094 6.042969 9.609375 C 6.042969 9.59375 6.058594 9.582031 6.078125 9.578125 M 6.210938 9.601562 C 6.226562 9.601562 6.238281 9.605469 6.25 9.609375 C 6.257812 9.617188 6.265625 9.625 6.265625 9.632812 C 6.257812 9.644531 6.238281 9.652344 6.21875 9.652344 C 6.199219 9.652344 6.183594 9.644531 6.175781 9.632812 C 6.175781 9.617188 6.191406 9.605469 6.210938 9.601562 M 6.335938 9.628906 C 6.347656 9.625 6.363281 9.628906 6.371094 9.632812 C 6.382812 9.640625 6.386719 9.648438 6.386719 9.65625 C 6.378906 9.667969 6.363281 9.675781 6.34375 9.675781 C 6.324219 9.675781 6.304688 9.667969 6.300781 9.65625 C 6.300781 9.640625 6.3125 9.628906 6.335938 9.628906 M 6.011719 9.65625 C 6.027344 9.65625 6.039062 9.65625 6.046875 9.664062 C 6.058594 9.667969 6.0625 9.675781 6.0625 9.683594 C 6.058594 9.695312 6.039062 9.703125 6.019531 9.703125 C 6 9.703125 5.984375 9.695312 5.976562 9.683594 C 5.976562 9.671875 5.992188 9.660156 6.011719 9.65625 M 6.136719 9.675781 C 6.148438 9.671875 6.160156 9.675781 6.171875 9.683594 C 6.179688 9.6875 6.1875 9.695312 6.1875 9.703125 C 6.179688 9.714844 6.164062 9.722656 6.144531 9.722656 C 6.125 9.722656 6.105469 9.714844 6.097656 9.703125 C 6.097656 9.691406 6.113281 9.675781 6.136719 9.675781 M 6.402344 9.683594 C 6.414062 9.683594 6.429688 9.6875 6.4375 9.691406 C 6.449219 9.695312 6.453125 9.703125 6.453125 9.710938 C 6.445312 9.722656 6.429688 9.730469 6.410156 9.730469 C 6.390625 9.730469 6.371094 9.722656 6.367188 9.710938 C 6.367188 9.699219 6.378906 9.6875 6.402344 9.683594 M 6.265625 9.683594 C 6.277344 9.683594 6.289062 9.6875 6.300781 9.691406 C 6.308594 9.695312 6.316406 9.703125 6.316406 9.710938 C 6.308594 9.722656 6.292969 9.730469 6.269531 9.730469 C 6.25 9.730469 6.234375 9.722656 6.226562 9.710938 C 6.226562 9.699219 6.242188 9.6875 6.265625 9.683594 M 6.519531 9.710938 C 6.523438 9.710938 6.710938 9.75 6.929688 9.808594 L 7.335938 9.917969 L 7.257812 10.046875 L 7.136719 10.253906 C 7.085938 10.351562 7.074219 10.351562 6.828125 10.296875 C 6.5625 10.242188 6.140625 10.1875 5.710938 10.15625 L 5.300781 10.121094 L 5.453125 10.070312 L 5.726562 9.957031 C 5.828125 9.902344 5.867188 9.894531 6.027344 9.90625 C 6.261719 9.921875 6.410156 9.882812 6.472656 9.792969 L 6.523438 9.710938 Z M 6.070312 9.742188 C 6.082031 9.742188 6.09375 9.742188 6.105469 9.75 C 6.113281 9.753906 6.121094 9.761719 6.121094 9.769531 C 6.113281 9.78125 6.097656 9.789062 6.078125 9.789062 C 6.058594 9.789062 6.039062 9.78125 6.03125 9.769531 C 6.03125 9.757812 6.046875 9.746094 6.070312 9.742188 M 6.355469 9.742188 C 6.367188 9.742188 6.382812 9.742188 6.390625 9.75 C 6.402344 9.753906 6.40625 9.761719 6.40625 9.769531 C 6.398438 9.78125 6.382812 9.785156 6.367188 9.785156 C 6.347656 9.785156 6.332031 9.78125 6.324219 9.769531 C 6.324219 9.757812 6.339844 9.746094 6.359375 9.742188 Z M 5.945312 9.742188 C 5.957031 9.742188 5.972656 9.742188 5.980469 9.75 C 5.992188 9.753906 5.996094 9.761719 5.996094 9.769531 C 5.992188 9.78125 5.972656 9.789062 5.953125 9.789062 C 5.933594 9.789062 5.917969 9.78125 5.910156 9.769531 C 5.914062 9.757812 5.925781 9.75 5.945312 9.746094 Z M 6.21875 9.75 C 6.242188 9.75 6.265625 9.757812 6.269531 9.773438 C 6.261719 9.785156 6.246094 9.792969 6.226562 9.792969 C 6.207031 9.792969 6.1875 9.785156 6.179688 9.773438 C 6.183594 9.761719 6.199219 9.753906 6.21875 9.75 M 5.878906 9.804688 C 5.890625 9.800781 5.90625 9.804688 5.914062 9.808594 C 5.925781 9.816406 5.929688 9.824219 5.929688 9.832031 C 5.925781 9.84375 5.90625 9.851562 5.886719 9.851562 C 5.867188 9.851562 5.851562 9.84375 5.84375 9.832031 C 5.84375 9.816406 5.859375 9.804688 5.878906 9.804688 M 6.007812 9.804688 C 6.023438 9.800781 6.035156 9.804688 6.046875 9.8125 C 6.058594 9.820312 6.0625 9.828125 6.058594 9.835938 C 6.050781 9.847656 6.035156 9.855469 6.015625 9.855469 C 5.996094 9.855469 5.976562 9.847656 5.972656 9.835938 C 5.972656 9.824219 5.984375 9.8125 6.007812 9.808594 Z M 6.140625 9.8125 C 6.164062 9.8125 6.1875 9.820312 6.191406 9.835938 C 6.183594 9.847656 6.167969 9.855469 6.148438 9.855469 C 6.128906 9.855469 6.109375 9.847656 6.105469 9.835938 C 6.109375 9.824219 6.121094 9.816406 6.140625 9.8125 M 6.285156 9.8125 C 6.296875 9.8125 6.308594 9.8125 6.320312 9.820312 C 6.328125 9.824219 6.335938 9.832031 6.335938 9.839844 C 6.328125 9.851562 6.3125 9.859375 6.292969 9.859375 C 6.273438 9.859375 6.253906 9.851562 6.25 9.839844 C 6.246094 9.828125 6.261719 9.816406 6.285156 9.8125 M 5.242188 10.199219 C 5.847656 10.214844 6.449219 10.28125 7.042969 10.398438 C 7.046875 10.402344 7.011719 10.515625 6.957031 10.65625 L 6.851562 10.941406 C 6.851562 10.964844 6.8125 10.96875 6.726562 10.957031 C 6.300781 10.894531 5.070312 10.898438 4.597656 10.964844 C 4.324219 11.003906 4.289062 11 4.308594 10.945312 L 4.359375 10.777344 L 4.390625 10.652344 L 4.667969 10.515625 C 4.851562 10.429688 5.027344 10.328125 5.191406 10.207031 L 5.238281 10.207031 Z M 3.859375 10.875 C 3.875 10.875 3.902344 10.886719 3.941406 10.914062 C 3.992188 10.941406 4.054688 10.964844 4.078125 10.964844 C 4.210938 10.964844 4.285156 11.140625 4.398438 11.726562 L 4.4375 11.9375 C 4.449219 11.984375 4.4375 11.992188 4.320312 12.015625 C 4.175781 12.046875 4.140625 12.050781 4.140625 12.03125 C 4.140625 11.984375 3.996094 11.378906 3.933594 11.164062 L 3.851562 10.878906 L 3.859375 10.878906 Z M 5.324219 10.96875 L 5.472656 10.96875 L 5.421875 11.015625 C 5.335938 11.113281 5.292969 11.117188 5.234375 11.054688 L 5.179688 10.984375 C 5.179688 10.972656 5.25 10.964844 5.324219 10.964844 Z M 5.636719 10.96875 L 5.914062 10.96875 L 5.851562 11.027344 C 5.78125 11.101562 5.777344 11.101562 5.699219 11.027344 L 5.636719 10.964844 Z M 6.058594 10.96875 L 6.125 10.96875 C 6.160156 10.96875 6.226562 10.96875 6.269531 10.980469 L 6.347656 10.992188 L 6.273438 11.054688 C 6.230469 11.09375 6.203125 11.113281 6.191406 11.113281 L 6.121094 11.035156 Z M 6.496094 10.984375 L 6.554688 11 C 6.59375 11.007812 6.667969 11.011719 6.726562 11.015625 L 6.828125 11.015625 L 6.75 11.078125 L 6.660156 11.140625 C 6.652344 11.140625 6.605469 11.101562 6.570312 11.058594 Z M 4.945312 10.988281 L 4.957031 10.988281 C 4.960938 11.003906 4.941406 11.03125 4.90625 11.070312 L 4.851562 11.136719 L 4.777344 11.078125 L 4.699219 11.015625 L 4.824219 11.003906 Z M 5.0625 11 L 5.144531 11.066406 L 5.226562 11.136719 L 4.921875 11.152344 L 4.992188 11.078125 Z M 5.988281 11 C 6 11 6.015625 11.003906 6.027344 11.011719 L 6.09375 11.09375 C 6.121094 11.128906 6.105469 11.144531 6.042969 11.140625 L 5.914062 11.117188 L 5.851562 11.101562 L 5.921875 11.039062 C 5.949219 11.007812 5.972656 10.992188 5.992188 10.992188 Z M 5.5625 11 C 5.585938 10.996094 5.613281 11.015625 5.644531 11.058594 C 5.679688 11.113281 5.679688 11.113281 5.539062 11.113281 L 5.402344 11.113281 L 5.472656 11.050781 C 5.507812 11.019531 5.539062 11.003906 5.5625 11.003906 Z M 6.433594 11.007812 L 6.496094 11.066406 C 6.566406 11.128906 6.578125 11.160156 6.523438 11.160156 L 6.382812 11.144531 L 6.269531 11.136719 L 6.351562 11.074219 Z M 4.628906 11.039062 C 4.644531 11.039062 4.671875 11.058594 4.710938 11.097656 L 4.769531 11.160156 L 4.644531 11.179688 L 4.464844 11.203125 C 4.425781 11.210938 4.441406 11.1875 4.515625 11.125 C 4.574219 11.074219 4.609375 11.042969 4.628906 11.039062 M 4.4375 11.039062 L 4.457031 11.039062 C 4.5 11.050781 4.5 11.058594 4.425781 11.125 L 4.351562 11.199219 L 4.324219 11.136719 C 4.304688 11.089844 4.308594 11.074219 4.355469 11.054688 Z M 6.796875 11.125 C 6.808594 11.125 6.808594 11.136719 6.796875 11.15625 C 6.785156 11.191406 6.742188 11.203125 6.742188 11.164062 C 6.742188 11.15625 6.753906 11.144531 6.777344 11.132812 Z M 5.699219 11.203125 C 6.09375 11.203125 6.496094 11.210938 6.59375 11.222656 C 6.75 11.242188 6.765625 11.246094 6.765625 11.304688 C 6.765625 11.371094 6.746094 11.375 6.53125 11.339844 C 6.46875 11.328125 6.207031 11.308594 5.957031 11.289062 C 5.46875 11.261719 4.980469 11.277344 4.496094 11.335938 C 4.398438 11.34375 4.371094 11.335938 4.371094 11.308594 C 4.371094 11.246094 4.894531 11.203125 5.699219 11.203125 M 5.171875 11.339844 L 5.449219 11.339844 L 5.386719 11.402344 C 5.308594 11.480469 5.304688 11.480469 5.234375 11.402344 Z M 5.53125 11.339844 L 5.601562 11.40625 L 5.675781 11.484375 L 5.523438 11.488281 L 5.375 11.488281 Z M 5.636719 11.339844 L 5.914062 11.339844 L 5.851562 11.402344 C 5.78125 11.480469 5.777344 11.480469 5.699219 11.402344 Z M 4.980469 11.339844 C 4.992188 11.339844 4.980469 11.363281 4.945312 11.414062 C 4.90625 11.460938 4.878906 11.484375 4.867188 11.488281 C 4.851562 11.484375 4.824219 11.464844 4.792969 11.425781 L 4.730469 11.363281 L 4.824219 11.363281 C 4.871094 11.363281 4.917969 11.359375 4.960938 11.34375 Z M 5.085938 11.363281 L 5.152344 11.421875 L 5.226562 11.484375 L 5.09375 11.492188 L 4.945312 11.503906 L 5.015625 11.429688 Z M 5.976562 11.363281 L 6.046875 11.441406 C 6.128906 11.523438 6.125 11.527344 5.941406 11.492188 L 5.851562 11.480469 Z M 6.078125 11.363281 L 6.203125 11.363281 C 6.332031 11.363281 6.355469 11.390625 6.273438 11.449219 C 6.210938 11.496094 6.210938 11.496094 6.140625 11.425781 Z M 4.511719 11.386719 C 4.570312 11.386719 4.566406 11.394531 4.488281 11.464844 C 4.433594 11.515625 4.425781 11.515625 4.40625 11.480469 C 4.398438 11.429688 4.429688 11.398438 4.511719 11.386719 M 6.5 11.398438 L 6.601562 11.40625 L 6.71875 11.425781 L 6.652344 11.484375 L 6.59375 11.539062 L 6.535156 11.472656 L 6.484375 11.398438 Z M 4.652344 11.421875 C 4.667969 11.421875 4.6875 11.433594 4.710938 11.457031 C 4.761719 11.503906 4.761719 11.503906 4.71875 11.523438 L 4.597656 11.539062 L 4.515625 11.539062 L 4.582031 11.472656 C 4.617188 11.441406 4.636719 11.425781 4.648438 11.421875 Z M 6.402344 11.4375 C 6.417969 11.433594 6.441406 11.449219 6.464844 11.484375 L 6.511719 11.539062 L 6.402344 11.539062 C 6.332031 11.539062 6.300781 11.53125 6.300781 11.511719 C 6.308594 11.488281 6.332031 11.46875 6.367188 11.449219 Z M 6.730469 11.496094 C 6.742188 11.496094 6.742188 11.507812 6.742188 11.523438 C 6.742188 11.570312 6.695312 11.601562 6.675781 11.570312 C 6.671875 11.554688 6.679688 11.535156 6.699219 11.515625 Z M 5.402344 11.554688 C 5.847656 11.554688 6.339844 11.582031 6.632812 11.632812 L 6.714844 11.644531 L 6.714844 11.855469 C 6.714844 12.011719 6.703125 12.066406 6.679688 12.066406 L 6.421875 12.015625 C 5.828125 11.921875 5.226562 11.90625 4.628906 11.96875 L 4.511719 11.984375 L 4.480469 11.808594 L 4.457031 11.625 C 4.457031 11.625 4.578125 11.601562 4.714844 11.589844 C 4.882812 11.566406 5.136719 11.554688 5.402344 11.554688 "/>
<path style=" stroke:none;fill-rule:nonzero;fill:rgb(0%,0%,0%);fill-opacity:1;" d="M 6.300781 10.363281 C 6.144531 10.363281 6.039062 10.464844 6.039062 10.613281 C 6.039062 10.839844 6.316406 10.957031 6.480469 10.792969 C 6.644531 10.632812 6.53125 10.363281 6.300781 10.363281 M 6.300781 10.421875 C 6.414062 10.421875 6.503906 10.507812 6.503906 10.613281 C 6.503906 10.753906 6.335938 10.851562 6.195312 10.789062 C 6.058594 10.71875 6.070312 10.5 6.21875 10.441406 Z M 6.300781 10.421875 "/>
<path style=" stroke:none;fill-rule:nonzero;fill:rgb(0%,0%,0%);fill-opacity:1;" d="M 5.269531 10.335938 C 5.113281 10.335938 5.007812 10.4375 5.007812 10.582031 C 5.007812 10.8125 5.285156 10.925781 5.449219 10.765625 C 5.613281 10.601562 5.5 10.335938 5.269531 10.335938 M 5.269531 10.394531 C 5.382812 10.394531 5.472656 10.480469 5.472656 10.582031 C 5.472656 10.726562 5.304688 10.820312 5.167969 10.761719 C 5.027344 10.6875 5.039062 10.46875 5.1875 10.414062 Z M 5.269531 10.394531 "/>
<path style=" stroke:none;fill-rule:nonzero;fill:rgb(0%,0%,0%);fill-opacity:1;" d="M 4.414062 6.914062 C 4.367188 6.914062 4.332031 6.949219 4.332031 6.996094 C 4.332031 7.042969 4.371094 7.082031 4.421875 7.082031 C 4.46875 7.082031 4.511719 7.042969 4.511719 6.996094 C 4.507812 6.96875 4.496094 6.949219 4.480469 6.933594 C 4.460938 6.917969 4.4375 6.910156 4.414062 6.914062 M 4.417969 6.941406 C 4.449219 6.941406 4.476562 6.964844 4.480469 6.996094 C 4.480469 7.023438 4.453125 7.046875 4.417969 7.046875 C 4.382812 7.046875 4.355469 7.023438 4.355469 6.996094 C 4.359375 6.964844 4.386719 6.941406 4.417969 6.941406 "/>
</g>
</svg>
